<?xml version="1.0" standalone="no"?>
<!DOCTYPE svg PUBLIC "-//W3C//DTD SVG 20010904//EN"
 "http://www.w3.org/TR/2001/REC-SVG-20010904/DTD/svg10.dtd">
<svg version="1.0" xmlns="http://www.w3.org/2000/svg"
 width="16.000000pt" height="16.000000pt" viewBox="0 0 16.000000 16.000000"
 preserveAspectRatio="xMidYMid meet">
<metadata>
Created by potrace 1.11, written by Peter Selinger 2001-2013
</metadata>
<g transform="translate(0.000000,16.000000) scale(0.004000,-0.004000)"
fill="#000000" stroke="none">
<path d="M1735 3984 c-50 -7 -122 -20 -160 -29 -39 -9 -79 -18 -90 -21 -11 -2
-49 -13 -85 -24 -423 -134 -800 -413 -1052 -780 -24 -36 -48 -72 -51 -80 -4
-8 -16 -28 -27 -45 -61 -94 -150 -303 -195 -459 -25 -88 -30 -109 -41 -176 -3
-19 -7 -37 -9 -41 -25 -40 -26 -617 -1 -658 2 -3 7 -24 10 -46 13 -83 67 -265
110 -374 227 -564 720 -1010 1295 -1172 58 -16 116 -31 129 -34 12 -2 30 -6
40 -9 9 -2 37 -7 62 -10 25 -3 56 -9 70 -12 45 -11 413 -12 495 -2 67 8 116
17 276 53 136 30 459 167 520 221 8 8 19 14 23 14 4 0 37 21 74 46 323 225
574 532 717 879 54 131 104 297 121 401 3 21 7 41 9 45 25 40 26 617 1 658 -2
3 -7 22 -10 41 -16 95 -57 244 -96 345 -201 518 -604 929 -1116 1139 -93 38
-254 88 -328 102 -11 2 -32 6 -46 9 -14 3 -38 7 -55 10 -16 3 -43 8 -60 11
-62 12 -440 11 -530 -2z"/>
</g>
</svg>
